<svg width="33" height="32" viewBox="0 0 33 32" fill="none" xmlns="http://www.w3.org/2000/svg">
<circle cx="16.5" cy="16" r="16" fill="white"/>
<path d="M14.9999 20.9999C14.8683 21.0007 14.7379 20.9755 14.616 20.9257C14.4942 20.8759 14.3834 20.8026 14.2899 20.7099C14.1962 20.617 14.1218 20.5064 14.071 20.3845C14.0203 20.2626 13.9941 20.1319 13.9941 19.9999C13.9941 19.8679 14.0203 19.7372 14.071 19.6154C14.1218 19.4935 14.1962 19.3829 14.2899 19.2899L17.5999 15.9999L14.4199 12.6899C14.2337 12.5026 14.1291 12.2491 14.1291 11.9849C14.1291 11.7207 14.2337 11.4673 14.4199 11.2799C14.5129 11.1862 14.6235 11.1118 14.7454 11.061C14.8672 11.0103 14.9979 10.9841 15.1299 10.9841C15.262 10.9841 15.3927 11.0103 15.5145 11.061C15.6364 11.1118 15.747 11.1862 15.8399 11.2799L19.6999 15.2799C19.8832 15.4669 19.9858 15.7182 19.9858 15.9799C19.9858 16.2417 19.8832 16.493 19.6999 16.6799L15.6999 20.6799C15.6102 20.7769 15.5021 20.855 15.382 20.91C15.2618 20.9649 15.132 20.9955 14.9999 20.9999Z" fill="#3671E9"/>
</svg>
