<svg width="32" height="32" viewBox="0 0 32 32" fill="none" xmlns="http://www.w3.org/2000/svg">
<circle cx="16" cy="16" r="16" fill="#C4C4C4"/>
<g clip-path="url(#clip0)">
<path d="M31.5214 19.8692C29.3836 28.4452 20.6947 33.6585 12.131 31.5206C3.55473 29.3829 -1.65852 20.6944 0.479358 12.1307C2.61711 3.55473 11.2934 -1.65852 19.8696 0.479359C28.4334 2.60461 33.6592 11.2931 31.5214 19.8692Z" fill="url(#paint0_linear)"/>
<path d="M23.6178 14.0066C23.9303 11.8816 22.3178 10.7316 20.0928 9.96914L20.8178 7.08164L19.0678 6.64414L18.3678 9.45664C17.9053 9.34414 17.4303 9.23164 16.9553 9.13164L17.6553 6.30664L15.9053 5.86914L15.1928 8.74414C14.8053 8.65664 14.4303 8.56914 14.0678 8.48164V8.46914L11.6428 7.86914L11.1803 9.74414C11.1803 9.74414 12.4803 10.0441 12.4553 10.0566C13.1678 10.2316 13.2928 10.7066 13.2678 11.0816L12.4428 14.3691C12.4928 14.3816 12.5553 14.3941 12.6303 14.4316C12.5678 14.4191 12.5053 14.4066 12.4428 14.3816L11.2928 18.9816C11.2053 19.1941 10.9803 19.5191 10.4928 19.3941C10.5053 19.4191 9.21777 19.0816 9.21777 19.0816L8.34277 21.0941L10.6303 21.6691C11.0553 21.7816 11.4678 21.8816 11.8803 21.9941L11.1553 24.9066L12.9053 25.3441L13.6303 22.4566C14.1053 22.5816 14.5803 22.7066 15.0303 22.8191L14.3178 25.6941L16.0678 26.1316L16.7928 23.2191C19.7928 23.7816 22.0428 23.5566 22.9803 20.8441C23.7428 18.6691 22.9428 17.4066 21.3678 16.5816C22.5303 16.3191 23.3928 15.5566 23.6178 14.0066ZM19.6053 19.6316C19.0678 21.8066 15.3928 20.6316 14.2053 20.3316L15.1678 16.4691C16.3553 16.7691 20.1803 17.3566 19.6053 19.6316ZM20.1553 13.9691C19.6553 15.9566 16.6053 14.9441 15.6178 14.6941L16.4928 11.1941C17.4803 11.4441 20.6678 11.9066 20.1553 13.9691Z" fill="white"/>
</g>
<defs>
<linearGradient id="paint0_linear" x1="15.9913" y1="-0.00767999" x2="15.9913" y2="31.9968" gradientUnits="userSpaceOnUse">
<stop stop-color="#F9AA4B"/>
<stop offset="1" stop-color="#F7931A"/>
</linearGradient>
<clipPath id="clip0">
<rect width="32" height="32" fill="white"/>
</clipPath>
</defs>
</svg>
