<svg width="108" height="22" viewBox="0 0 108 22" fill="none" xmlns="http://www.w3.org/2000/svg">
<circle cx="10" cy="11" r="10" fill="#26A17B"/>
<path fill-rule="evenodd" clip-rule="evenodd" d="M8.86392 13.3036L14.5728 6L16 7.87045L8.86392 17L5 12.0567L6.46203 10.1862L8.86392 13.3036Z" fill="white"/>
<path d="M32.4 17.128C31.2693 17.128 30.288 16.8933 29.456 16.424C28.624 15.944 27.984 15.2667 27.536 14.392C27.0987 13.5173 26.88 12.4827 26.88 11.288C26.88 10.104 27.0987 9.08 27.536 8.216C27.984 7.34133 28.624 6.66933 29.456 6.2C30.288 5.72 31.2693 5.48 32.4 5.48C33.168 5.48 33.888 5.59733 34.56 5.832C35.2427 6.056 35.808 6.38667 36.256 6.824L35.584 8.328C35.0613 7.912 34.5493 7.61333 34.048 7.432C33.5467 7.24 33.008 7.144 32.432 7.144C31.3333 7.144 30.48 7.50133 29.872 8.216C29.2747 8.92 28.976 9.944 28.976 11.288C28.976 12.632 29.2747 13.6667 29.872 14.392C30.48 15.1067 31.3333 15.464 32.432 15.464C33.008 15.464 33.5467 15.3733 34.048 15.192C34.5493 15 35.0613 14.696 35.584 14.28L36.256 15.784C35.808 16.2213 35.2427 16.5573 34.56 16.792C33.888 17.016 33.168 17.128 32.4 17.128ZM41.5333 17.112C40.6906 17.112 39.9599 16.9413 39.3413 16.6C38.7333 16.2587 38.2639 15.7787 37.9333 15.16C37.6026 14.5307 37.4373 13.784 37.4373 12.92C37.4373 12.0667 37.6026 11.3253 37.9333 10.696C38.2639 10.056 38.7333 9.56533 39.3413 9.224C39.9599 8.88267 40.6906 8.712 41.5333 8.712C42.3546 8.712 43.0693 8.88267 43.6773 9.224C44.2959 9.56533 44.7706 10.056 45.1013 10.696C45.4426 11.3253 45.6133 12.0667 45.6133 12.92C45.6133 13.784 45.4426 14.5307 45.1013 15.16C44.7706 15.7787 44.2959 16.2587 43.6773 16.6C43.0693 16.9413 42.3546 17.112 41.5333 17.112ZM41.5333 15.576C42.1946 15.576 42.7013 15.3573 43.0533 14.92C43.4159 14.472 43.5973 13.8053 43.5973 12.92C43.5973 12.0453 43.4159 11.3893 43.0533 10.952C42.7013 10.504 42.1946 10.28 41.5333 10.28C40.8613 10.28 40.3386 10.504 39.9653 10.952C39.6026 11.3893 39.4213 12.0453 39.4213 12.92C39.4213 13.8053 39.6026 14.472 39.9653 14.92C40.3279 15.3573 40.8506 15.576 41.5333 15.576ZM47.322 17V11.208C47.322 10.824 47.3113 10.44 47.29 10.056C47.2793 9.672 47.2473 9.29333 47.194 8.92H49.082L49.258 10.52L49.082 10.568C49.338 9.96 49.7167 9.50133 50.218 9.192C50.73 8.872 51.3167 8.712 51.978 8.712C53.898 8.712 54.858 9.82133 54.858 12.04V17H52.858V12.12C52.858 11.4907 52.7353 11.032 52.49 10.744C52.2447 10.4453 51.866 10.296 51.354 10.296C50.7353 10.296 50.2393 10.4933 49.866 10.888C49.5033 11.272 49.322 11.784 49.322 12.424V17H47.322ZM56.947 17V11.208C56.947 10.824 56.9363 10.44 56.915 10.056C56.9043 9.672 56.8723 9.29333 56.819 8.92H58.707L58.883 10.52L58.707 10.568C58.963 9.96 59.3417 9.50133 59.843 9.192C60.355 8.872 60.9417 8.712 61.603 8.712C63.523 8.712 64.483 9.82133 64.483 12.04V17H62.483V12.12C62.483 11.4907 62.3603 11.032 62.115 10.744C61.8697 10.4453 61.491 10.296 60.979 10.296C60.3603 10.296 59.8643 10.4933 59.491 10.888C59.1283 11.272 58.947 11.784 58.947 12.424V17H56.947ZM73.516 16.104C73.132 16.424 72.6573 16.6747 72.092 16.856C71.5373 17.0267 70.972 17.112 70.396 17.112C69.5213 17.112 68.764 16.9467 68.124 16.616C67.4947 16.2853 67.0093 15.8053 66.668 15.176C66.3267 14.5467 66.156 13.8 66.156 12.936C66.156 12.104 66.3213 11.3733 66.652 10.744C66.9827 10.104 67.4413 9.608 68.028 9.256C68.6147 8.89333 69.292 8.712 70.06 8.712C70.8067 8.712 71.4467 8.87733 71.98 9.208C72.5133 9.528 72.924 9.992 73.212 10.6C73.5107 11.208 73.66 11.928 73.66 12.76V13.064H67.916L67.932 11.992H72.476L71.932 12.536C71.9427 11.7573 71.788 11.1653 71.468 10.76C71.1587 10.3547 70.7053 10.152 70.108 10.152C69.468 10.152 68.972 10.3813 68.62 10.84C68.268 11.288 68.092 11.9333 68.092 12.776C68.092 13.736 68.2893 14.4453 68.684 14.904C69.0787 15.352 69.676 15.576 70.476 15.576C70.9133 15.576 71.34 15.5067 71.756 15.368C72.1827 15.2187 72.5773 15.0053 72.94 14.728L73.516 16.104ZM79.0016 17.112C78.159 17.112 77.4283 16.9467 76.8096 16.616C76.2016 16.2747 75.7323 15.7947 75.4016 15.176C75.0816 14.5467 74.9216 13.8107 74.9216 12.968C74.9216 12.1147 75.0923 11.368 75.4336 10.728C75.775 10.088 76.2603 9.592 76.8896 9.24C77.519 8.888 78.255 8.712 79.0976 8.712C79.663 8.712 80.2123 8.80267 80.7456 8.984C81.2896 9.16533 81.7323 9.416 82.0736 9.736L81.4976 11.144C81.1563 10.8667 80.7936 10.6587 80.4096 10.52C80.0256 10.3707 79.6416 10.296 79.2576 10.296C78.5536 10.296 77.9936 10.52 77.5776 10.968C77.1723 11.416 76.9696 12.072 76.9696 12.936C76.9696 13.7893 77.1723 14.44 77.5776 14.888C77.983 15.336 78.5483 15.56 79.2736 15.56C79.647 15.56 80.0256 15.4907 80.4096 15.352C80.7936 15.2027 81.1563 14.984 81.4976 14.696L82.0736 16.104C81.7216 16.424 81.2683 16.6747 80.7136 16.856C80.1696 17.0267 79.599 17.112 79.0016 17.112ZM82.455 10.424V8.92H88.151V10.424H82.455ZM88.151 15.336V16.92C87.9377 16.9947 87.7243 17.0427 87.511 17.064C87.3083 17.096 87.0897 17.112 86.855 17.112C85.9483 17.112 85.2443 16.856 84.743 16.344C84.2523 15.832 84.007 15.096 84.007 14.136V6.952L86.007 6.28V14.04C86.007 14.4027 86.0657 14.6907 86.183 14.904C86.3003 15.1067 86.455 15.2507 86.647 15.336C86.8497 15.4213 87.0737 15.464 87.319 15.464C87.4577 15.464 87.591 15.4533 87.719 15.432C87.847 15.4107 87.991 15.3787 88.151 15.336ZM96.4535 16.104C96.0695 16.424 95.5948 16.6747 95.0295 16.856C94.4748 17.0267 93.9095 17.112 93.3335 17.112C92.4588 17.112 91.7015 16.9467 91.0615 16.616C90.4322 16.2853 89.9468 15.8053 89.6055 15.176C89.2642 14.5467 89.0935 13.8 89.0935 12.936C89.0935 12.104 89.2588 11.3733 89.5895 10.744C89.9202 10.104 90.3788 9.608 90.9655 9.256C91.5522 8.89333 92.2295 8.712 92.9975 8.712C93.7442 8.712 94.3842 8.87733 94.9175 9.208C95.4508 9.528 95.8615 9.992 96.1495 10.6C96.4482 11.208 96.5975 11.928 96.5975 12.76V13.064H90.8535L90.8695 11.992H95.4135L94.8695 12.536C94.8802 11.7573 94.7255 11.1653 94.4055 10.76C94.0962 10.3547 93.6428 10.152 93.0455 10.152C92.4055 10.152 91.9095 10.3813 91.5575 10.84C91.2055 11.288 91.0295 11.9333 91.0295 12.776C91.0295 13.736 91.2268 14.4453 91.6215 14.904C92.0162 15.352 92.6135 15.576 93.4135 15.576C93.8508 15.576 94.2775 15.5067 94.6935 15.368C95.1202 15.2187 95.5148 15.0053 95.8775 14.728L96.4535 16.104ZM106.019 17H104.051V14.952L104.243 15.24C104.062 15.8373 103.715 16.3013 103.203 16.632C102.702 16.952 102.11 17.112 101.427 17.112C100.723 17.112 100.099 16.9413 99.5551 16.6C99.0218 16.248 98.6058 15.752 98.3071 15.112C98.0085 14.472 97.8591 13.7307 97.8591 12.888C97.8591 12.0453 98.0031 11.3093 98.2911 10.68C98.5898 10.0507 99.0111 9.56533 99.5551 9.224C100.099 8.88267 100.723 8.712 101.427 8.712C102.11 8.712 102.702 8.88267 103.203 9.224C103.715 9.56533 104.062 10.024 104.243 10.6L104.019 10.84V5.224H106.019V17ZM101.971 15.576C102.632 15.576 103.144 15.3467 103.507 14.888C103.87 14.4293 104.051 13.7733 104.051 12.92C104.051 12.0773 103.87 11.4267 103.507 10.968C103.144 10.5093 102.632 10.28 101.971 10.28C101.299 10.28 100.776 10.5093 100.403 10.968C100.03 11.416 99.8431 12.056 99.8431 12.888C99.8431 13.7413 100.03 14.4027 100.403 14.872C100.776 15.3413 101.299 15.576 101.971 15.576Z" fill="#26A17B"/>
</svg>
