<svg width="32" height="32" viewBox="0 0 32 32" fill="none" xmlns="http://www.w3.org/2000/svg">
<path d="M31.9132 16.0001C31.9132 24.7901 24.7877 31.9159 15.9977 31.9159C7.20769 31.9159 0.0820312 24.7901 0.0820312 16.0001C0.0820312 7.21013 7.20769 0.0844727 15.9977 0.0844727C24.7876 0.0844727 31.9132 7.21013 31.9132 16.0001Z" fill="#6374C3"/>
<path d="M15.9464 8.61523L15.8481 8.94937V18.6451L15.9464 18.7433L20.4471 16.0829L15.9464 8.61523Z" fill="white"/>
<path d="M15.9465 8.61523L11.4458 16.0829L15.9465 18.7433V14.0373V8.61523Z" fill="white"/>
<path d="M15.946 20.2073L15.8906 20.2749V23.7287L15.946 23.8905L20.4494 17.5483L15.946 20.2073Z" fill="white"/>
<path d="M15.9465 23.8905V20.2073L11.4458 17.5483L15.9465 23.8905Z" fill="white"/>
<path d="M15.9468 18.744L20.4474 16.0838L15.9468 14.0381V18.744Z" fill="white"/>
<path d="M11.4458 16.0838L15.9464 18.7441V14.0381L11.4458 16.0838Z" fill="white"/>
</svg>
