<svg width="32" height="32" viewBox="0 0 32 32" fill="none" xmlns="http://www.w3.org/2000/svg">
<path d="M15.9616 31.9233C24.777 31.9233 31.9233 24.777 31.9233 15.9616C31.9233 7.14626 24.777 0 15.9616 0C7.14626 0 0 7.14626 0 15.9616C0 24.777 7.14626 31.9233 15.9616 31.9233Z" fill="#F4F7FF"/>
<path d="M20.796 12.2016C22.6377 10.5133 23.4051 8.1344 23.2516 6.98332C23.2516 6.98332 23.2516 6.90659 23.1749 6.98332C19.5682 10.2063 16.9591 9.28548 14.7336 9.5157C9.59215 9.97613 8.36433 15.1176 9.74562 17.8802C10.513 19.415 10.0526 17.0361 11.8943 15.0409C14.043 12.5852 18.8008 14.0433 20.796 12.2016Z" fill="#1B2143"/>
<path d="M18.2636 19.2615C19.5682 17.7267 19.8752 15.7315 19.7217 14.8874C19.7217 14.8874 19.7217 14.8106 19.6449 14.8874C17.1126 17.8034 14.9639 17.343 13.1989 17.7267C9.20849 18.6476 8.67132 22.8682 10.0526 24.8634C10.82 26.0145 10.2061 24.1728 11.4339 22.331C12.9687 20.2591 16.8824 20.9497 18.2636 19.2615Z" fill="#1B2143"/>
</svg>
