<svg width="24" height="24" fill="none" xmlns="http://www.w3.org/2000/svg"><circle cx="12" cy="12" r="12" fill="#6374C3"/><path d="M14 8.924c0-2.297-1.143-4.273-2.013-4.916-.003-.002-.066-.037-.061.055l-.001.003c-.073 4.436-2.387 5.638-3.66 7.257-2.937 3.737-.206 7.835 2.576 8.592 1.556.424-.36-.75-.606-3.228C9.936 13.69 14 11.404 14 8.924z" fill="#fff"/><path d="M15.352 11.01c-.015-.01-.036-.019-.05.008-.04.525-.522 1.647-1.133 2.678-2.073 3.496-.892 5.181-.227 6.087.385.525 0 0 .963-.537.076-.042 1.881-1.168 2.077-3.732.19-2.484-1.152-4.049-1.63-4.504z" fill="#fff"/></svg>
