<svg width="60" height="92" viewBox="0 0 60 92" fill="none" xmlns="http://www.w3.org/2000/svg">
<g clip-path="url(#clip0)">
<path d="M39.4082 28.2969C39.4082 15.096 32.9992 3.72294 28.0901 -0.000386864C28.0901 -0.000386864 27.7492 -0.203477 27.7492 0.338097C27.3401 25.8598 14.3173 32.8326 7.09007 42.1071C-9.47811 63.6346 5.93098 87.1931 21.6128 91.5257C30.4083 93.9628 19.5673 87.1932 18.2037 72.9768C16.5673 55.7141 39.4082 42.5809 39.4082 28.2969Z" fill="#1D2243"/>
<path d="M48.0001 37.0302C47.9319 36.9625 47.7955 36.9625 47.6592 37.0302C47.6592 37.0302 47.6592 37.0302 47.591 37.0979C47.3182 40.2796 43.7728 47.1847 39.341 53.4805C24.2728 74.8727 32.8637 85.1626 37.7046 90.7138C40.5001 93.9632 37.7046 90.7138 44.7273 87.3966C45.2728 87.1258 58.3637 80.2208 59.7955 64.5828C61.2273 49.351 51.4773 39.8057 48.0001 37.0302Z" fill="#0055FF"/>
</g>
<defs>
<clipPath id="clip0">
<rect width="60" height="92" fill="white"/>
</clipPath>
</defs>
</svg>
