<svg width="13" height="16" viewBox="0 0 13 16" fill="none" xmlns="http://www.w3.org/2000/svg">
<path d="M11.5556 1.44444H8.53667C8.23333 0.606667 7.43889 0 6.5 0C5.56111 0 4.76667 0.606667 4.46333 1.44444H1.44444C0.65 1.44444 0 2.09444 0 2.88889V14C0 14.7944 0.65 15.4444 1.44444 15.4444H11.5556C12.35 15.4444 13 14.7944 13 14V2.88889C13 2.09444 12.35 1.44444 11.5556 1.44444ZM6.5 4.33333C7.69889 4.33333 8.66667 5.30111 8.66667 6.5C8.66667 7.69889 7.69889 8.66667 6.5 8.66667C5.30111 8.66667 4.33333 7.69889 4.33333 6.5C4.33333 5.30111 5.30111 4.33333 6.5 4.33333ZM10.8333 13H2.16667V11.9889C2.16667 10.5444 5.05556 9.75 6.5 9.75C7.94444 9.75 10.8333 10.5444 10.8333 11.9889V13Z" fill="#5E6EC2"/>
</svg>
