<svg width="102" height="24" viewBox="0 0 102 24" fill="none" xmlns="http://www.w3.org/2000/svg">
<path d="M18.6399 1.64V23H15.1599L4.50988 9.38V23H0.129883V1.64H3.57988L14.2299 15.23V1.64H18.6399Z" fill="black"/>
<path d="M37.8629 7.79V23H33.3929V20.75C32.9329 21.53 32.2829 22.14 31.4429 22.58C30.6029 23.02 29.6529 23.24 28.5929 23.24C27.2729 23.24 26.1029 22.92 25.0829 22.28C24.0829 21.64 23.2929 20.73 22.7129 19.55C22.1529 18.35 21.8729 16.97 21.8729 15.41C21.8729 13.85 22.1529 12.46 22.7129 11.24C23.2929 10.02 24.0928 9.08 25.1129 8.42C26.1329 7.74 27.2929 7.4 28.5929 7.4C29.6529 7.4 30.6029 7.63 31.4429 8.09C32.2829 8.55 32.9329 9.17 33.3929 9.95V7.79H37.8629ZM29.9129 19.79C31.0329 19.79 31.8929 19.41 32.4929 18.65C33.0928 17.89 33.3929 16.79 33.3929 15.35C33.3929 13.91 33.0928 12.81 32.4929 12.05C31.8929 11.27 31.0329 10.88 29.9129 10.88C28.7929 10.88 27.9229 11.28 27.3029 12.08C26.6829 12.88 26.3729 13.99 26.3729 15.41C26.3729 16.83 26.6728 17.92 27.2729 18.68C27.8929 19.42 28.7729 19.79 29.9129 19.79Z" fill="black"/>
<path d="M49.4993 4.49C48.7993 4.49 48.2393 4.69 47.8193 5.09C47.3993 5.47 47.1893 6.09 47.1893 6.95V7.79H50.3693V11.18H47.1893V23H42.6593V11.18H39.8093V7.79H42.6593V6.83C42.6593 4.91 43.1493 3.42 44.1293 2.36C45.1093 1.3 46.5293 0.77 48.3893 0.77C49.4293 0.77 50.2893 0.900001 50.9693 1.16V4.7C50.3893 4.56 49.8993 4.49 49.4993 4.49Z" fill="black"/>
<path d="M68.9422 0.5V4.85H63.9921V0.5H68.9422ZM58.3521 7.79H68.7322V23H64.1721V11.18H58.3521V23H53.8221V11.18H50.9421V7.79H53.8221V6.56C53.8221 5.12 54.0421 3.99 54.4821 3.17C54.9421 2.35 55.6821 1.76 56.7021 1.4C57.7221 1.02 59.1121 0.830001 60.8721 0.830001H62.0721V4.1H61.3521C60.4721 4.1 59.8221 4.17 59.4021 4.31C59.0021 4.45 58.7221 4.72 58.5621 5.12C58.4221 5.5 58.3521 6.11 58.3521 6.95V7.79Z" fill="black"/>
<path d="M78.0982 11.18V17.09C78.0982 17.93 78.3182 18.55 78.7582 18.95C79.1982 19.33 79.7682 19.52 80.4682 19.52C80.9082 19.52 81.4082 19.45 81.9682 19.31V22.82C81.2482 23.1 80.3782 23.24 79.3582 23.24C77.4782 23.24 76.0382 22.71 75.0382 21.65C74.0582 20.59 73.5682 19.1 73.5682 17.18V11.18H70.6882V7.79H73.5682V4.22L78.0982 2.75V7.79H81.9682V11.18H78.0982Z" fill="black"/>
<path d="M84.2928 7.79H88.8228V23H84.2928V7.79Z" fill="black"/>
<path d="M101.857 0.650024V4.91003H84V0.650024H101.857Z" fill="#2C43AD"/>
</svg>
