<svg width="102" height="23" viewBox="0 0 102 23" fill="none" xmlns="http://www.w3.org/2000/svg">
<path d="M18.6399 1.14V22.5H15.1599L4.50988 8.88V22.5H0.129883V1.14H3.57988L14.2299 14.73V1.14H18.6399Z" fill="white"/>
<path d="M37.8629 7.29V22.5H33.3929V20.25C32.9329 21.03 32.2829 21.64 31.4429 22.08C30.6029 22.52 29.6529 22.74 28.5929 22.74C27.2729 22.74 26.1029 22.42 25.0829 21.78C24.0829 21.14 23.2929 20.23 22.7129 19.05C22.1529 17.85 21.8729 16.47 21.8729 14.91C21.8729 13.35 22.1529 11.96 22.7129 10.74C23.2929 9.52 24.0928 8.58 25.1129 7.92C26.1329 7.24 27.2929 6.9 28.5929 6.9C29.6529 6.9 30.6029 7.13 31.4429 7.59C32.2829 8.05 32.9329 8.67 33.3929 9.45V7.29H37.8629ZM29.9129 19.29C31.0329 19.29 31.8929 18.91 32.4929 18.15C33.0928 17.39 33.3929 16.29 33.3929 14.85C33.3929 13.41 33.0928 12.31 32.4929 11.55C31.8929 10.77 31.0329 10.38 29.9129 10.38C28.7929 10.38 27.9229 10.78 27.3029 11.58C26.6829 12.38 26.3729 13.49 26.3729 14.91C26.3729 16.33 26.6728 17.42 27.2729 18.18C27.8929 18.92 28.7729 19.29 29.9129 19.29Z" fill="white"/>
<path d="M49.4993 3.99C48.7993 3.99 48.2393 4.19 47.8193 4.59C47.3993 4.97 47.1893 5.59 47.1893 6.45V7.29H50.3693V10.68H47.1893V22.5H42.6593V10.68H39.8093V7.29H42.6593V6.33C42.6593 4.41 43.1493 2.92 44.1293 1.86C45.1093 0.800001 46.5293 0.27 48.3893 0.27C49.4293 0.27 50.2893 0.400001 50.9693 0.660001V4.2C50.3893 4.06 49.8993 3.99 49.4993 3.99Z" fill="white"/>
<path d="M68.9422 0V4.35H63.9921V0H68.9422ZM58.3521 7.29H68.7322V22.5H64.1721V10.68H58.3521V22.5H53.8221V10.68H50.9421V7.29H53.8221V6.06C53.8221 4.62 54.0421 3.49 54.4821 2.67C54.9421 1.85 55.6821 1.26 56.7021 0.900002C57.7221 0.520002 59.1121 0.330001 60.8721 0.330001H62.0721V3.6H61.3521C60.4721 3.6 59.8221 3.67 59.4021 3.81C59.0021 3.95 58.7221 4.22 58.5621 4.62C58.4221 5 58.3521 5.61 58.3521 6.45V7.29Z" fill="white"/>
<path d="M78.0982 10.68V16.59C78.0982 17.43 78.3182 18.05 78.7582 18.45C79.1982 18.83 79.7682 19.02 80.4682 19.02C80.9082 19.02 81.4082 18.95 81.9682 18.81V22.32C81.2482 22.6 80.3782 22.74 79.3582 22.74C77.4782 22.74 76.0382 22.21 75.0382 21.15C74.0582 20.09 73.5682 18.6 73.5682 16.68V10.68H70.6882V7.29H73.5682V3.72L78.0982 2.25V7.29H81.9682V10.68H78.0982Z" fill="white"/>
<path d="M84.2928 7.29H88.8228V22.5H84.2928V7.29ZM102 0.15V4.41H84.1428V0.15H102Z" fill="white"/>
</svg>
