<svg width="14" height="14" viewBox="0 0 14 14" fill="none" xmlns="http://www.w3.org/2000/svg">
<path d="M7 0C3.13406 0 0 3.13406 0 7C0 10.8665 3.13434 14 7.00028 14C10.8665 14 14 10.8665 14 7C14 3.13406 10.8665 0 7 0ZM7.29606 2.76896C7.80423 2.76896 8.21601 3.18101 8.21601 3.68918C8.21601 4.19735 7.80423 4.60941 7.29606 4.60941C6.7879 4.60941 6.37584 4.19735 6.37584 3.68918C6.37584 3.18101 6.7879 2.76896 7.29606 2.76896ZM8.12101 10.9107C8.12101 10.9107 7.39604 11.5185 6.48272 11.0601C6.28001 10.9587 6.10878 10.7828 5.99941 10.5892C5.68926 10.0407 5.80857 9.45218 5.80857 9.45218L5.89971 8.73053L6.13639 6.84865L5.49179 6.86274C5.18993 6.86964 4.94082 6.6302 4.93419 6.32861C4.92894 6.09441 5.07394 5.89115 5.27997 5.80912L6.93178 5.15872C7.32506 5.00379 7.76916 5.19711 7.92381 5.59039C7.98292 5.7398 7.99148 5.89557 7.95778 6.04084L7.93597 6.13888L7.28999 8.9755L7.1287 9.68472C7.10495 9.7916 7.10136 9.81591 7.09445 9.87197C7.07705 10.1912 7.53109 9.95179 7.53109 9.95179C7.80368 9.80127 8.14669 9.90097 8.29638 10.1736C8.43751 10.4296 8.35576 10.7483 8.12101 10.9107Z" fill="#757580"/>
</svg>
