<?xml version="1.0" encoding="UTF-8"?>
<svg xmlns="http://www.w3.org/2000/svg" xmlns:xlink="http://www.w3.org/1999/xlink" width="16pt" height="16pt" viewBox="0 0 16 16" version="1.1">
<g id="surface1">
<path style="fill: #848bb1; fill-opacity: 1; fill-rule: nonzero; stroke: none;" d="M 7.878906 5.464844 L 10.167969 7.757812 L 10.179688 7.636719 C 10.179688 6.433594 9.203125 5.457031 8 5.457031 Z M 7.878906 5.464844 "/>
<path style="fill: #848bb1; fill-opacity: 1; fill-rule: nonzero; stroke: none;" d="M 8 4 C 10.003906 4 11.632812 5.628906 11.632812 7.636719 C 11.632812 8.105469 11.539062 8.550781 11.375 8.964844 L 13.503906 11.089844 C 14.601562 10.175781 15.464844 8.988281 16 7.636719 C 14.738281 4.445312 11.636719 2.183594 8 2.183594 C 6.980469 2.183594 6.007812 2.363281 5.101562 2.691406 L 6.671875 4.257812 C 7.082031 4.097656 7.527344 4 8 4 Z M 8 4 "/>
<path style="fill: #848bb1; fill-opacity: 1; fill-rule: nonzero; stroke: none;" d="M 0.726562 2.019531 L 2.386719 3.675781 L 2.714844 4.007812 C 1.515625 4.945312 0.566406 6.191406 0 7.636719 C 1.257812 10.828125 4.363281 13.089844 8 13.089844 C 9.125 13.089844 10.203125 12.871094 11.1875 12.476562 L 11.496094 12.785156 L 13.613281 14.90625 L 14.542969 13.984375 L 1.652344 1.09375 Z M 4.746094 6.035156 L 5.871094 7.160156 C 5.839844 7.316406 5.816406 7.472656 5.816406 7.636719 C 5.816406 8.839844 6.792969 9.816406 8 9.816406 C 8.160156 9.816406 8.316406 9.796875 8.472656 9.761719 L 9.59375 10.886719 C 9.109375 11.125 8.574219 11.273438 8 11.273438 C 5.992188 11.273438 4.363281 9.644531 4.363281 7.636719 C 4.363281 7.0625 4.507812 6.523438 4.746094 6.035156 Z M 4.746094 6.035156 "/>
</g>
</svg>
