<svg width="30" height="30" viewBox="0 0 30 30" fill="none" xmlns="http://www.w3.org/2000/svg">
<path fill-rule="evenodd" clip-rule="evenodd" d="M15 30C23.2843 30 30 23.2843 30 15C30 6.71573 23.2843 0 15 0C6.71573 0 0 6.71573 0 15C0 23.2843 6.71573 30 15 30ZM19.4542 17.8635L22.6369 14.6818C24.3937 12.9246 24.3937 10.0753 22.6369 8.31794C20.8791 6.56069 18.0303 6.56069 16.2725 8.31794L13.8616 10.7289C14.8246 10.5877 15.8139 10.6838 16.7318 11.0415L17.8634 9.90876C18.7412 9.0315 20.1683 9.0315 21.045 9.90876C21.9228 10.786 21.9228 12.2131 21.045 13.091L17.8634 16.2726C16.9867 17.1493 15.559 17.1504 14.6817 16.2726C14.4071 15.998 14.2285 15.6673 14.1264 15.3179C14.1106 15.327 14.0946 15.3359 14.0786 15.3447C14.0109 15.3823 13.9432 15.4198 13.8863 15.4772L12.4076 16.956C12.5976 17.2768 12.8141 17.5877 13.0909 17.8635C14.8476 19.6213 17.6975 19.6213 19.4542 17.8635ZM13.0909 21.0462L14.2231 19.9135C15.1404 20.2706 16.1298 20.3673 17.0933 20.2255L14.6818 22.637C12.9245 24.3938 10.0752 24.3938 8.31794 22.637C6.56069 20.8792 6.56069 18.0305 8.31794 16.2727L11.4996 13.091C13.2569 11.3338 16.1067 11.3338 17.8634 13.091C18.1403 13.3673 18.3578 13.6772 18.5468 13.999L17.068 15.4773C17.012 15.5333 16.9462 15.5698 16.8795 15.6068C16.8625 15.6162 16.8454 15.6256 16.8285 15.6355C16.7252 15.2866 16.5467 14.956 16.2726 14.6819C15.3953 13.804 13.9687 13.804 13.0909 14.6819L9.90872 17.8635C9.03147 18.7413 9.03147 20.1684 9.90872 21.0462C10.786 21.9229 12.2137 21.9229 13.0909 21.0462Z" fill="#5D6EC2"/>
</svg>
